<svg xmlns="http://www.w3.org/2000/svg" fill="none" viewBox="0 0 327 327"><circle cx="163.5" cy="163.5" r="163.5" fill="#FDEAF1"/><rect width="20" height="56" x="99" y="121" fill="#F95192" rx="10"/><rect width="9.388" height="47.479" x="135.732" y="106.199" fill="#F95192" rx="4.694" transform="rotate(104.429 135.732 106.199)"/><path fill="#F95192" d="M176.132 221.331c4.304-.575 7.998 3.195 7.178 7.459-.488 2.536-2.493 4.519-5.043 4.931-35.976 5.806-56.088.494-79.624-20.822-2.176-1.971-2.674-5.188-1.275-7.77 2.068-3.818 7.215-4.568 10.449-1.671 19.666 17.621 35.559 22.248 68.315 17.873Z"/><rect width="9.388" height="47.479" x="218.31" y="95" fill="#F95192" rx="4.694" transform="rotate(77.26 218.31 95)"/><rect width="20" height="56" x="189" y="121" fill="#F95192" rx="10"/><circle cx="65" cy="168" r="23" fill="#F95192"/><circle cx="243" cy="168" r="23" fill="#F95192"/><path fill="#F95192" d="m257.5 80 7.427 21.897L285 110l-20.073 8.103L257.5 140l-7.427-21.897L230 110l20.073-8.103L257.5 80Z"/></svg>