<svg xmlns="http://www.w3.org/2000/svg" viewBox="0 0 1024 1024"><g xmlns="http://www.w3.org/2000/svg"><path d="M323.131 474.485c-26.075 0-47.218 21.143-47.218 47.219 0 26.074 21.144 47.217 47.218 47.217s47.219-21.143 47.219-47.217c0-26.076-21.144-47.219-47.219-47.219m358.532 94.437c26.075 0 47.217-21.145 47.217-47.219 0-26.075-21.142-47.218-47.217-47.218s-47.219 21.143-47.219 47.218c0 26.074 21.144 47.219 47.219 47.219"/><path d="M1024 521.48C1024 233.474 794.77 0 512 0 229.229 0 0 233.474 0 521.48 0 761.086 158.67 962.921 374.821 1024c42.284-104.358 71.563-233.847 84.028-361.78-205.333-8.866-364.052-68.41-364.052-140.517 0-50.179 76.875-94.272 192.79-119.428l62.17-211.075 56.966 193.423c16.972-1.522 34.381-2.65 52.126-3.436 17.407-.735 35.15-1.129 53.151-1.129s35.744.394 53.151 1.129c17.743.786 35.152 1.914 52.125 3.436L674.242 191.2l62.17 211.075c115.916 25.156 192.792 69.249 192.792 119.428 0 72.106-158.72 131.65-364.053 140.517 12.464 127.934 41.743 257.422 84.027 361.78C865.329 962.921 1024 761.086 1024 521.48"/></g></svg>